HIERARCHY
ROOT Hips
{
	OFFSET 0.000000 0.000000 0.000000 
	CHANNELS 6 Xposition Yposition Zposition Yrotation Zrotation Xrotation 
	JOINT Lumbar
	{
		OFFSET 0.000000 0.000000 0.000000 
		CHANNELS 3 Zrotation Xrotation Yrotation
		JOINT Neck
		{
			OFFSET 0.000000 0.445665 0.000000 
			CHANNELS 3 Zrotation Xrotation Yrotation
			End Site
			{
				OFFSET 0.000000 0.227535 0.000000 
			}
		}
		JOINT RightShoulder
		{
			OFFSET 0.019635 0.377685 0.194865 
			CHANNELS 3 Zrotation Xrotation Yrotation
			JOINT RightElbow
			{
				OFFSET 0.000000 -0.243375 0.000000 
				CHANNELS 2 Zrotation Yrotation
				JOINT RightWrist
				{
					OFFSET 0.000000 -0.264825 0.000000 
					CHANNELS 2 Zrotation Xrotation
					End Site
					{
						OFFSET 0.006600 -0.176220 0.000990 
					}
				}
			}
		}
		JOINT LeftShoulder
		{
			OFFSET 0.019635 0.377685 -0.194865 
			CHANNELS 3 Zrotation Xrotation Yrotation
			JOINT LeftElbow
			{
				OFFSET 0.000000 -0.243375 0.000000 
				CHANNELS 2 Zrotation Yrotation
				JOINT LeftWrist
				{
					OFFSET 0.000000 -0.264825 0.000000 
					CHANNELS 2 Zrotation Xrotation
					End Site
					{
						OFFSET 0.006600 -0.176220 -0.000990 
					}
				}
			}
		}
	}
	JOINT RightHip
	{
		OFFSET 0.052140 -0.069960 0.075570 
		CHANNELS 3 Zrotation Xrotation Yrotation
		JOINT RightKnee
		{
			OFFSET 0.000000 -0.402270 0.000000 
			CHANNELS 1 Zrotation
			JOINT RightAnkle
			{
				OFFSET 0.000000 -0.404085 0.000000 
				CHANNELS 3 Zrotation Xrotation Yrotation
				End Site
				{
					OFFSET 0.204105 -0.089430 0.008415 
				}
			}
		}
	}
	JOINT LeftHip
	{
		OFFSET 0.052140 -0.069960 -0.075570 
		CHANNELS 3 Zrotation Xrotation Yrotation
		JOINT LeftKnee
		{
			OFFSET 0.000000 -0.402270 0.000000 
			CHANNELS 1 Zrotation
			JOINT LeftAnkle
			{
				OFFSET 0.000000 -0.404085 0.000000 
				CHANNELS 3 Zrotation Xrotation Yrotation
				End Site
				{
					OFFSET 0.204105 -0.089430 -0.008415 
				}
			}
		}
	}
}
MOTION
Frames: 28
Frame Time: 0.02
0.00096 -9e-05 -0.0002 32.27287 -17.83831 -4.38069 44.2719 -1.37278 -7.27916 -14.24277 3.40956 -0.39859 -22.89639 -7.97792 2.63047 26.37491 71.25543 2.23638 -2.86904 -22.30459 6.5893 3.12386 30.12908 -107.74031 16.80377 -1.33669 28.59867 -2.74518 -3.44925 -20.27432 -6.99434 -4.95846 -3.31621 33.08818 4.11571 -3.16192 -24.34406 -7.11182 4.24333 2.93553
0.00049 -0.00018 0.00024 32.38256 -17.85359 -4.38406 44.24788 -1.34118 -7.30027 -14.20736 3.35893 -0.39903 -22.83533 -7.59753 1.02934 26.55755 76.64394 3.65932 -2.05319 -22.38718 6.64956 2.85512 30.50608 -107.75046 16.78558 -1.33377 28.62881 -2.75979 -3.56364 -20.28468 -6.99948 -4.96374 -3.31702 33.15836 4.13887 -3.02078 -24.35848 -7.11006 4.22465 2.92101
2e-05 -0.00027 0.00068 32.49268 -17.86885 -4.38742 44.22389 -1.30967 -7.32127 -14.17225 3.30807 -0.39947 -22.77523 -7.21906 -0.56422 26.74041 82.00913 5.07614 -1.24089 -22.46934 6.70939 2.58797 30.88204 -107.76584 16.76907 -1.33167 28.65884 -2.77447 -3.67779 -20.29507 -7.00469 -4.96907 -3.31787 33.22851 4.16194 -2.8796 -24.37295 -7.10825 4.20592 2.90648
-0.00045 -0.00037 0.00112 32.6021 -17.8841 -4.39077 44.19994 -1.27817 -7.34231 -14.13696 3.25754 -0.39991 -22.71449 -6.83997 -2.15991 26.92266 87.37968 6.49433 -0.42775 -22.55167 6.7694 2.32028 31.25792 -107.77717 16.7513 -1.32895 28.68891 -2.78904 -3.7918 -20.30541 -7.00983 -4.97435 -3.31868 33.29852 4.18505 -2.73876 -24.38734 -7.10649 4.18727 2.892
-0.00092 -0.00046 0.00156 32.71096 -17.89931 -4.39414 44.17594 -1.24659 -7.36348 -14.10136 3.20736 -0.40035 -22.65249 -6.45864 -3.7644 27.10427 92.7768 7.91952 0.38942 -22.63442 6.83002 2.05045 31.63474 -107.78027 16.73098 -1.32494 28.719 -2.80355 -3.90612 -20.3157 -7.01488 -4.97957 -3.31944 33.36843 4.20822 -2.5983 -24.40166 -7.1048 4.16873 2.87758
-0.0014 -0.00055 0.002 32.82381 -17.91467 -4.3975 44.15198 -1.21522 -7.3841 -14.06729 3.15507 -0.4008 -22.59638 -6.08618 -5.33506 27.28967 98.07505 9.31882 1.19149 -22.71534 6.88823 1.78878 32.00884 -107.82084 16.72228 -1.32675 28.74885 -2.81859 -4.01999 -20.3263 -7.0204 -4.98512 -3.32047 33.43908 4.23102 -2.45569 -24.41644 -7.10274 4.1496 2.86284
-0.00185 -0.00064 0.00245 32.92809 -17.9298 -4.40083 44.12798 -1.18347 -7.40584 -14.03003 3.10711 -0.40123 -22.52851 -5.69639 -6.97126 27.46759 103.56404 10.76792 2.02275 -22.79997 6.951 1.51173 32.38815 -107.78878 16.69097 -1.3173 28.77939 -2.83246 -4.1343 -20.33626 -7.02496 -4.98999 -3.32096 33.50827 4.25468 -2.31715 -24.43026 -7.10143 4.13161 2.8487
-0.00233 -0.00073 0.00288 33.04105 -17.94499 -4.40427 44.104 -1.15208 -7.42646 -13.99601 3.05512 -0.40168 -22.47146 -5.32237 -8.54848 27.65175 108.88145 12.17248 2.82768 -22.88095 7.00998 1.2475 32.76239 -107.81857 16.67911 -1.31742 28.80884 -2.84756 -4.24884 -20.3468 -7.03041 -4.9955 -3.32194 33.57859 4.2773 -2.1756 -24.44499 -7.09944 4.11271 2.83409
-0.00282 -0.00082 0.0033 33.1617 -17.96087 -4.40752 44.08013 -1.12106 -7.44606 -13.96479 2.99826 -0.40213 -22.42785 -4.96844 -10.04802 27.84635 113.973 13.51738 3.59822 -22.95838 7.06263 1.00436 33.13166 -107.94527 16.69689 -1.33263 28.83877 -2.86358 -4.3612 -20.35811 -7.03697 -5.00176 -3.32353 33.65125 4.29964 -2.02728 -24.46077 -7.09657 4.09212 2.81856
-0.00321 -0.0009 0.00382 33.22934 -17.97464 -4.41088 44.05587 -1.08769 -7.47261 -13.91398 2.96959 -0.4025 -22.30756 -4.5014 -11.97772 27.98938 120.31563 15.18986 4.56 -23.059 7.14661 0.65615 33.53322 -107.57855 16.56178 -1.27123 28.8714 -2.87258 -4.47871 -20.36519 -7.03721 -5.00364 -3.32166 33.71331 4.32657 -1.90862 -24.4703 -7.0986 4.07951 2.80731
-0.00382 -0.00101 0.00412 33.41433 -17.99168 -4.41462 44.03226 -1.05944 -7.4838 -13.90672 2.88136 -0.4031 -22.34856 -4.27136 -13.01072 28.2357 124.05002 16.1813 5.12261 -23.10895 7.16777 0.51919 33.86424 -108.21124 16.7378 -1.36484 28.89486 -2.89745 -4.59007 -20.38104 -7.05074 -5.01475 -3.32706 33.79591 4.34191 -1.73336 -24.49316 -7.0904 4.05117 2.78766
-0.00509 -0.0012 0.00396 33.87936 -18.02852 -4.41462 44.01169 -1.04391 -7.45742 -14.00067 2.62945 -0.40375 -22.838 -4.71143 -11.47192 28.8139 120.3016 15.20262 4.5441 -23.03297 6.98766 1.05491 34.02107 -111.96503 17.87284 -1.94383 28.92269 -2.95739 -4.64378 -20.42273 -7.10165 -5.05156 -3.35297 33.95176 4.34167 -1.34836 -24.55177 -7.05289 3.96969 2.73937
-0.00658 -0.00143 0.00357 34.46982 -18.06733 -4.41602 43.99134 -1.03367 -7.41433 -14.14075 2.31826 -0.40472 -23.48643 -5.38553 -9.0553 29.48685 113.99688 13.55899 3.57374 -22.90393 6.74966 1.78657 34.10448 -116.65769 19.30237 -2.66819 28.93676 -3.03454 -4.69758 -20.47293 -7.16589 -5.09762 -3.38613 34.12609 4.3274 -0.91406 -24.62397 -7.00529 3.87389 2.68349
-0.00795 -0.00164 0.00321 35.03053 -18.09731 -4.41972 43.97029 -1.02203 -7.37649 -14.27298 2.03374 -0.40593 -24.0607 -5.94001 -7.11037 30.08487 109.07147 12.28566 2.81192 -22.79033 6.55725 2.36649 34.20755 -120.6665 20.52644 -3.28574 28.93668 -3.10976 -4.77961 -20.51808 -7.22319 -5.13913 -3.41555 34.2797 4.30821 -0.54109 -24.69042 -6.96318 3.79166 2.63501
-0.0094 -0.00183 0.00314 35.4772 -18.15796 -4.41049 43.95257 -1.00663 -7.35036 -14.35411 1.74824 -0.40556 -24.65109 -6.55218 -4.84819 30.81771 103.21241 10.72294 1.91864 -22.71226 6.28406 3.20713 34.3642 -125.74043 22.04709 -4.07211 29.01892 -3.16142 -4.74761 -20.5682 -7.28355 -5.1819 -3.44664 34.48136 4.33418 -0.01414 -24.75488 -6.91741 3.68115 2.57071
-0.01076 -0.00207 0.00242 36.19021 -18.15873 -4.42921 43.92697 -0.99971 -7.29358 -14.54738 1.45323 -0.40848 -25.23589 -7.09813 -3.04914 31.29211 98.7045 9.60598 1.20891 -22.54884 6.16446 3.5566 34.397 -128.84661 23.02786 -4.54569 28.9312 -3.26463 -4.94647 -20.61002 -7.34156 -5.22452 -3.47623 34.59233 4.26589 0.21688 -24.82697 -6.87665 3.62418 2.53647
-0.01175 -0.00238 -7e-05 37.61438 -17.96388 -4.51887 43.88761 -1.02002 -7.17522 -15.08261 1.12595 -0.42106 -25.84547 -7.41706 -2.65236 31.02977 98.44216 9.8756 1.07891 -22.15207 6.49124 2.45547 34.06068 -126.0457 22.37646 -4.08215 28.33759 -3.5198 -5.84079 -20.62657 -7.38236 -5.2619 -3.49767 34.40592 3.91334 -0.49782 -24.91423 -6.85428 3.73586 2.59669
-0.01267 -0.00273 -0.0032 39.30009 -17.71454 -4.6377 43.83854 -1.0477 -7.02252 -15.72018 0.79534 -0.43681 -26.42683 -7.65938 -2.76518 30.50402 99.63866 10.61512 1.15006 -21.67316 6.97291 0.86276 33.60994 -121.27931 21.18522 -3.30611 27.58147 -3.82374 -6.957 -20.63453 -7.42161 -5.29923 -3.51772 34.13582 3.471 -1.49301 -25.00903 -6.83705 3.89896 2.6858
-0.01369 -0.00307 -0.00601 40.86304 -17.50934 -4.74706 43.78894 -1.0687 -6.87381 -16.28329 0.47935 -0.45066 -26.97209 -7.92731 -2.71012 30.09875 100.25449 11.14837 1.1463 -21.239 7.3786 -0.47571 33.24217 -117.56976 20.2855 -2.69756 26.92525 -4.09616 -7.93314 -20.64656 -7.46661 -5.33836 -3.53993 33.93153 3.08849 -2.27999 -25.10227 -6.8159 4.02685 2.75524
-0.01441 -0.00337 -0.00896 42.45076 -17.22126 -4.84055 43.76129 -1.10403 -6.77581 -16.96919 0.10466 -0.46644 -27.73886 -8.23972 -2.37232 29.6935 100.47758 11.64072 1.06548 -20.77207 7.80662 -1.94126 32.74421 -113.19397 19.19785 -1.98541 26.15622 -4.40837 -9.07336 -20.6581 -7.49125 -5.37059 -3.55612 33.60944 2.62744 -3.39501 -25.18874 -6.80046 4.20314 2.85142
-0.01575 -0.00377 -0.01177 44.04248 -17.09427 -4.97392 43.6843 -1.11109 -6.56143 -17.41903 -0.14615 -0.47898 -28.02371 -8.44147 -2.73469 29.22446 101.8432 12.32213 1.19014 -20.35403 8.22473 -3.25675 32.48726 -109.73725 18.37364 -1.41437 25.58669 -4.64944 -9.92645 -20.66864 -7.55718 -5.4167 -3.58417 33.51406 2.30601 -3.90793 -25.29014 -6.77527 4.29238 2.89964
-0.01881 -0.00443 -0.01409 45.62166 -17.41337 -5.2109 43.48452 -1.03946 -6.05842 -17.22607 -0.06786 -0.48165 -27.08182 -8.32503 -5.09756 28.64375 106.51201 13.5583 1.90587 -20.09603 8.58616 -4.08037 32.95803 -109.19534 18.36868 -1.29476 25.58331 -4.67885 -9.91552 -20.67743 -7.74242 -5.50416 -3.64755 34.05304 2.41654 -2.57016 -25.43754 -6.71506 4.11696 2.8017
-0.02249 -0.00518 -0.01624 47.18713 -17.89879 -5.48688 43.23338 -0.93899 -5.43521 -16.78551 0.138 -0.48098 -25.63546 -8.10295 -8.11969 28.00807 112.21157 14.94703 2.81197 -19.88943 8.93117 -4.73031 33.66922 -109.65325 18.65054 -1.3289 25.79121 -4.63554 -9.61098 -20.68572 -7.96825 -5.60497 -3.72245 34.82529 2.66626 -0.63921 -25.5984 -6.64613 3.85448 2.65582
-0.0259 -0.00588 -0.01843 48.73246 -18.31589 -5.74458 42.99848 -0.85079 -4.85089 -16.43563 0.29491 -0.48194 -24.35753 -7.95061 -10.71412 27.39631 117.10471 16.1689 3.58237 -19.65628 9.27808 -5.43109 34.24835 -109.72658 18.82975 -1.30285 25.91822 -4.6276 -9.45207 -20.69487 -8.17224 -5.69768 -3.79057 35.49856 2.83622 0.94151 -25.74867 -6.58579 3.63952 2.53627
-0.02929 -0.0066 -0.0208 50.40056 -18.70014 -6.00564 42.79314 -0.76594 -4.33095 -16.18122 0.41393 -0.48254 -23.3418 -7.71052 -13.85185 26.77741 123.42182 17.80716 4.55839 -19.43358 9.65297 -6.2622 34.91993 -109.46869 18.88552 -1.2294 25.97469 -4.61155 -9.24995 -20.70091 -8.39063 -5.79904 -3.86517 36.13906 3.07243 2.85263 -25.91806 -6.50633 3.3925 2.39841
-0.03285 -0.0073 -0.02275 51.80348 -19.19337 -6.26857 42.51427 -0.66776 -3.64987 -15.66826 0.64175 -0.48306 -21.65263 -7.62091 -16.02646 26.16687 127.06458 18.62255 5.15983 -19.20255 9.96479 -6.78084 35.45724 -110.12421 19.2583 -1.28985 26.23162 -4.59453 -9.06453 -20.71358 -8.58854 -5.88549 -3.92901 36.90452 3.20526 4.22054 -26.05077 -6.4643 3.19123 2.28706
-0.03673 -0.00787 -0.02367 52.49978 -19.94382 -6.52722 42.04261 -0.53481 -2.54461 -14.49778 1.14305 -0.4842 -18.29612 -8.04448 -15.21177 25.57072 122.48441 16.99852 4.58092 -18.93399 10.09582 -6.42035 35.56841 -113.40602 20.56777 -1.73077 26.98047 -4.59178 -9.00232 -20.74339 -8.72133 -5.92805 -3.96065 37.95661 3.0164 3.94307 -26.07864 -6.53017 3.13409 2.25908
-0.04076 -0.0084 -0.02417 52.9244 -20.79881 -6.78627 41.49831 -0.39045 -1.28338 -13.07634 1.7487 -0.48535 -14.26843 -8.61137 -13.42817 24.99276 115.26571 14.55873 3.63328 -18.65531 10.16495 -5.76015 35.53619 -117.51884 22.16372 -2.29424 27.92626 -4.5905 -8.9654 -20.78023 -8.83184 -5.95501 -3.981 39.12708 2.72003 3.10182 -26.06924 -6.63362 3.126 2.25937
